<?xml version="1.0"?>
<svg opacity="0.8" xmlns="http://www.w3.org/2000/svg" id="Capa_1" enable-background="new 0 0 512 512" height="512px" viewBox="0 0 512 512" width="512px" class="">
    <g>
        <g>
            <path d="m349.659 512c11.495 0 20.813-9.318 20.813-20.813v-164.423c0-125.918-114.472-122.797-114.472-122.797s-114.472-3.122-114.472 122.797v164.423c0 11.495 9.318 20.813 20.813 20.813z" fill="#0081a7" data-original="#0081a7" class="" style="fill:#0081a7" data-old_color="#0081a7"/>
            <path d="m355.902 362.146h-40.585c-25.845 0-48.281 14.807-59.317 36.374-11.036-21.567-33.472-36.374-59.317-36.374h-40.585c-5.005 0-9.877.573-14.569 1.625v127.416c0 11.495 9.318 20.813 20.813 20.813h187.317c11.495 0 20.813-9.318 20.813-20.813v-127.416c-4.693-1.052-9.564-1.625-14.57-1.625z" fill="#0e596f" data-original="#0e596f" class="" style="fill:#0e596f" data-old_color="#0e596f"/>
            <path d="m325.464 512v-124.878c0-76.41-69.464-74.516-69.464-74.516s-69.464-1.894-69.464 74.516v124.878z" fill="#fdfcdc" data-original="#fdfcdc" class="" style="fill:#fdfcdc" data-old_color="#fdfcdc"/>
            <path d="m322.519 362.146h-7.202c-25.845 0-48.281 14.807-59.317 36.374-11.036-21.567-33.472-36.374-59.317-36.374h-7.202c-1.873 7.223-2.945 15.495-2.945 24.976v124.878h138.927v-124.878c.001-9.481-1.071-17.753-2.944-24.976z" fill="#c8c7a6" data-original="#c8c7a6" class="" style="fill:#c8c7a6" data-old_color="#c8c7a6"/>
            <path d="m301.789 203.967h-44.205c13.716.186 112.888 5.584 112.888 122.797v24.976h56.195v-22.894c0-68.969-55.91-124.879-124.878-124.879z" fill="#0081a7" data-original="#0081a7" class="" style="fill:#0081a7" data-old_color="#0081a7"/>
            <path d="m370.472 351.74v21.854c0 15.518 12.58 28.098 28.098 28.098s28.098-12.58 28.098-28.098v-21.854z" fill="#fdfcdc" data-original="#fdfcdc" class="" style="fill:#fdfcdc" data-old_color="#fdfcdc"/>
            <path d="m210.211 203.967h44.205c-13.716.186-112.888 5.584-112.888 122.797v24.976h-56.195v-22.894c0-68.969 55.91-124.879 124.878-124.879z" fill="#0081a7" data-original="#0081a7" class="" style="fill:#0081a7" data-old_color="#0081a7"/>
            <path d="m141.528 351.74v21.854c0 15.518-12.58 28.098-28.098 28.098s-28.098-12.58-28.098-28.098v-21.854z" fill="#fdfcdc" data-original="#fdfcdc" class="" style="fill:#fdfcdc" data-old_color="#fdfcdc"/>
            <path d="m342.172 240.492c-33.898-37.938-86.172-36.525-86.172-36.525s-52.274-1.414-86.172 36.525c21.393 9.847 49.054 14.467 86.172 14.467s64.778-4.62 86.172-14.467z" fill="#0e596f" data-original="#0e596f" class="" style="fill:#0e596f" data-old_color="#0e596f"/>
            <circle cx="331.967" cy="64.52" fill="#0081a7" r="64.52" data-original="#0081a7" class="" style="fill:#0081a7" data-old_color="#0081a7"/>
            <path d="m385.315 100.81c-16.791-41.474-52.974-73.095-97.248-83.555-12.679 11.782-20.62 28.592-20.62 47.265 0 35.634 28.887 64.52 64.52 64.52 22.176.001 41.735-11.191 53.348-28.23z" fill="#0e596f" data-original="#0e596f" class="" style="fill:#0e596f" data-old_color="#0e596f"/>
            <circle cx="331.967" cy="64.52" fill="#5e3881" r="33.301" data-original="#5E3881" class="active-path" style="fill:#fdfcdc" data-old_color="#5e3881"/>
            <circle cx="180.033" cy="64.52" fill="#0081a7" r="64.52" data-original="#0081a7" class="" style="fill:#0081a7" data-old_color="#0081a7"/>
            <path d="m126.685 100.81c16.791-41.474 52.974-73.095 97.248-83.555 12.679 11.782 20.62 28.592 20.62 47.265 0 35.634-28.887 64.52-64.52 64.52-22.176.001-41.735-11.191-53.348-28.23z" fill="#0e596f" data-original="#0e596f" class="" style="fill:#0e596f" data-old_color="#0e596f"/>
            <circle cx="180.033" cy="64.52" fill="#5e3881" r="33.301" data-original="#5E3881" class="active-path" style="fill:#fdfcdc" data-old_color="#5e3881"/>
            <path d="m370.472 152.976c0 63.221-51.251 77.008-114.472 77.008s-114.472-13.787-114.472-77.008 51.251-114.472 114.472-114.472 114.472 51.251 114.472 114.472z" fill="#0081a7" data-original="#0081a7" class="" style="fill:#0081a7" data-old_color="#0081a7"/>
            <path d="m324.339 61.135c6.252 15.156 9.71 31.76 9.71 49.174 0 54.167-33.379 100.531-80.686 119.666.877.005 1.756.009 2.637.009 63.221 0 114.472-13.787 114.472-77.008 0-37.605-18.134-70.973-46.133-91.841z" fill="#0e596f" data-original="#0e596f" class="" style="fill:#0e596f" data-old_color="#0e596f"/>
            <path d="m313.236 191.48c0 31.61-25.625 38.504-57.236 38.504s-57.236-6.894-57.236-38.504 25.626-57.236 57.236-57.236 57.236 25.625 57.236 57.236z" fill="#fdfcdc" data-original="#fdfcdc" class="" style="fill:#fdfcdc" data-old_color="#fdfcdc"/>
            <path d="m274.342 137.264c9.944 11.059 16 25.684 16 41.728 0 34.484-27.955 42.004-62.439 42.004-5.521 0-10.871-.196-15.969-.661 10.499 7.479 26.34 9.649 44.066 9.649 31.61 0 57.236-6.894 57.236-38.504 0-25.193-16.284-46.568-38.894-54.216z" fill="#c8c7a6" data-original="#c8c7a6" class="" style="fill:#c8c7a6" data-old_color="#c8c7a6"/>
            <path d="m376.715 512h-82.211c-11.495 0-20.813-9.318-20.813-20.813v-62.439c0-22.989 18.637-41.626 41.626-41.626h40.585c22.989 0 41.626 18.637 41.626 41.626v62.439c0 11.495-9.318 20.813-20.813 20.813z" fill="#0081a7" data-original="#0081a7" class="" style="fill:#0081a7" data-old_color="#0081a7"/>
            <path d="m355.902 387.122h-21.854c22.989 0 41.626 18.637 41.626 41.626v62.439c0 11.495-9.318 20.813-20.813 20.813h21.854c11.495 0 20.813-9.318 20.813-20.813v-62.439c0-22.989-18.636-41.626-41.626-41.626z" fill="#0e596f" data-original="#0e596f" class="" style="fill:#0e596f" data-old_color="#0e596f"/>
            <path d="m364.748 512h-58.276v-39.545c0-13.794 11.182-24.976 24.976-24.976h8.325c13.794 0 24.976 11.182 24.976 24.976v39.545z" fill="#0e596f" data-original="#0e596f" class="" style="fill:#0e596f" data-old_color="#0e596f"/>
            <path d="m217.496 512h-82.211c-11.495 0-20.813-9.318-20.813-20.813v-62.439c0-22.989 18.637-41.626 41.626-41.626h40.585c22.989 0 41.626 18.637 41.626 41.626v62.439c0 11.495-9.318 20.813-20.813 20.813z" fill="#0081a7" data-original="#0081a7" class="" style="fill:#0081a7" data-old_color="#0081a7"/>
            <path d="m196.683 387.122h-21.854c22.989 0 41.626 18.637 41.626 41.626v62.439c0 11.495-9.318 20.813-20.813 20.813h21.854c11.495 0 20.813-9.318 20.813-20.813v-62.439c0-22.989-18.637-41.626-41.626-41.626z" fill="#0e596f" data-original="#0e596f" class="" style="fill:#0e596f" data-old_color="#0e596f"/>
            <path d="m205.528 512h-58.276v-39.545c0-13.794 11.182-24.976 24.976-24.976h8.325c13.794 0 24.976 11.182 24.976 24.976v39.545z" fill="#0e596f" data-original="#0e596f" class="" style="fill:#0e596f" data-old_color="#0e596f"/>
        </g>
    </g>
</svg>
