<?xml version="1.0"?>
<svg opacity="0.8" xmlns="http://www.w3.org/2000/svg" id="Capa_1" enable-background="new 0 0 512 512" height="512px" viewBox="0 0 512 512" width="512px" class="">
    <g>
        <g>
            <path d="m501.162 329.874c-31.708 105.367-129.462 182.126-245.162 182.126s-213.474-76.759-245.173-182.126h.01l40.198-88.42-12.949-119.841h-.01c45.101-72.978 125.836-121.613 217.924-121.613 46.049 0 89.245 12.156 126.578 33.44 37.323 21.284 68.785 51.684 91.336 88.173l-12.949 119.841z" fill="#0081a7" data-original="#0081a7" class="" style="fill:#0081a7" data-old_color="#0081a7"/>
            <path d="m501.161 329.874-40.192-88.42 12.944-119.84h.002c-23.191-37.518-55.794-68.603-94.522-89.951 20.173 36.597 31.663 78.651 31.663 123.394 0 141.385-114.615 256-256 256-44.743 0-86.797-11.49-123.394-31.663 43.573 79.047 127.696 132.606 224.338 132.606 115.699 0 213.454-76.76 245.161-182.126z" fill="#0e596f" data-original="#0e596f" class="" style="fill:#0e596f" data-old_color="#0e596f"/>
            <path d="m.067 250.724c-.036 1.755-.067 3.512-.067 5.276 0 25.686 3.8 50.481 10.839 73.874 67.688 33.735 152.76 53.829 245.161 53.829s177.473-20.094 245.161-53.829c7.039-23.393 10.839-48.188 10.839-73.874 0-1.764-.031-3.521-.067-5.276-69.326 37.078-158.561 59.39-255.933 59.39s-186.608-22.312-255.933-59.39z" fill="#FDFCDC" data-original="#FDFCDC" class="" style="fill:#fdfcdc" data-old_color="#FDFCDC"/>
            <path d="m511.933 250.724c-42.193 22.566-91.771 39.649-146.06 49.575-24.213 35.078-56.945 63.818-95.219 83.222 86.73-2.004 166.414-21.705 230.507-53.648 7.039-23.392 10.839-48.187 10.839-73.873 0-1.764-.031-3.521-.067-5.276z" fill="#c8c7a6" data-original="#c8c7a6" class="" style="fill:#c8c7a6" data-old_color="#c8c7a6"/>
            <path d="m38.086 121.614c-11.662 18.87-20.937 39.367-27.414 61.074 67.715 33.784 152.851 53.911 245.328 53.911s177.613-20.127 245.328-53.912c-6.477-21.707-15.752-42.204-27.414-61.074-62.677 26.175-137.516 41.397-217.914 41.397s-155.237-15.222-217.914-41.396z" fill="#FDFCDC" data-original="#FDFCDC" class="" style="fill:#fdfcdc" data-old_color="#FDFCDC"/>
            <path d="m411.057 155.057c0 21.971-2.772 43.293-7.977 63.641 35.531-9.016 68.564-21.201 98.248-36.011-6.477-21.707-15.752-42.204-27.414-61.074-19.892 8.307-41.013 15.506-63.144 21.47.182 3.97.287 7.96.287 11.974z" fill="#c8c7a6" data-original="#c8c7a6" class="" style="fill:#c8c7a6" data-old_color="#c8c7a6"/>
            <path d="m10.695 182.609c-6.466 21.642-10.15 44.483-10.629 68.113 69.328 37.077 158.562 59.392 255.934 59.392s186.606-22.314 255.933-59.391c-.478-23.631-4.163-46.471-10.629-68.113-67.711 33.781-152.832 53.915-245.304 53.915s-177.593-20.134-245.305-53.916z" fill="#00AFB9" data-original="#00AFB9" class="" style="fill:#00afb9" data-old_color="#00AFB9"/>
            <path d="m365.874 300.298c54.288-9.927 103.865-27.01 146.059-49.576-.478-23.631-4.163-46.471-10.629-68.113-29.673 14.804-62.691 26.986-98.204 36.003-7.571 29.641-20.326 57.203-37.226 81.686z" fill="#0D7379" data-original="#0D7379" class="active-path" style="fill:#0d7379" data-old_color="#0D7379"/>
        </g>
    </g>
</svg>
