<?xml version="1.0"?>
<svg opacity="0.8" xmlns="http://www.w3.org/2000/svg" id="Capa_1" enable-background="new 0 0 512 512" height="512px" viewBox="0 0 512 512" width="512px" class="">
    <g>
        <g>
            <g>
                <path d="m334.783 188.418c-1.919 0-3.84-.733-5.305-2.197-2.929-2.93-2.929-7.679 0-10.61l169.715-169.716c2.93-2.928 7.679-2.928 10.61 0 2.929 2.93 2.929 7.679 0 10.61l-169.715 169.716c-1.466 1.464-3.385 2.197-5.305 2.197z" fill="#cba763" data-original="#CBA763" class=""/>
            </g>
            <g>
                <path d="m177.217 188.418c-1.92 0-3.84-.733-5.305-2.197l-169.715-169.717c-2.929-2.93-2.929-7.679 0-10.61 2.93-2.928 7.679-2.928 10.61 0l169.715 169.716c2.929 2.93 2.929 7.679 0 10.61-1.465 1.465-3.385 2.198-5.305 2.198z" fill="#cba763" data-original="#CBA763" class=""/>
            </g>
            <g>
                <g>
                    <path d="m490.406 508.302h-468.812c-7.812 0-14.145-6.333-14.145-14.145v-34.353c0-7.812 6.333-14.145 14.145-14.145h468.812c7.812 0 14.145 6.333 14.145 14.145v34.353c0 7.811-6.333 14.145-14.145 14.145z" fill="#0081a7" data-original="#0081a7" class="" style="fill:#0081a7" data-old_color="#0081a7"/>
                </g>
                <g>
                    <path d="m490.406 300.165h-468.812c-7.812 0-14.145-6.333-14.145-14.145v-34.353c0-7.812 6.333-14.145 14.145-14.145h468.812c7.812 0 14.145 6.333 14.145 14.145v34.353c0 7.812-6.333 14.145-14.145 14.145z" fill="#0081a7" data-original="#0081a7" class="" style="fill:#0081a7" data-old_color="#0081a7"/>
                </g>
                <g>
                    <path d="m490.406 237.522h-27.28c7.812 0 14.145 6.333 14.145 14.145v34.353c0 7.812-6.333 14.145-14.145 14.145h27.28c7.812 0 14.145-6.333 14.145-14.145v-34.353c0-7.812-6.333-14.145-14.145-14.145z" fill="#0e596f" data-original="#0e596f" class="active-path" style="fill:#0e596f" data-old_color="#0e596f"/>
                </g>
                <g>
                    <path d="m490.406 445.659h-27.28c7.812 0 14.145 6.333 14.145 14.145v34.353c0 7.812-6.333 14.145-14.145 14.145h27.28c7.812 0 14.145-6.333 14.145-14.145v-34.353c0-7.812-6.333-14.145-14.145-14.145z" fill="#0e596f" data-original="#0e596f" class="active-path" style="fill:#0e596f" data-old_color="#0e596f"/>
                </g>
                <g>
                    <path d="m443.757 205.191h-375.514c-13.935 0-26.886 7.178-34.272 18.995l-8.336 13.337h460.729l-8.336-13.337c-7.385-11.817-20.336-18.995-34.271-18.995z" fill="#f1d59d" data-original="#F1D59D" class=""/>
                </g>
                <g>
                    <path d="m476.765 372.914 12.633 72.745h-466.796l21.745-72.745-21.745-72.745h466.796z" fill="#0e596f" data-original="#0e596f" class="" style="fill:#0e596f" data-old_color="#0e596f"/>
                </g>
                <g>
                    <path d="m22.605 300.165 57.591 72.747-57.591 72.747z" fill="#00afb9" data-original="#00afb9" class="" style="fill:#00afb9" data-old_color="#00afb9"/>
                </g>
                <g>
                    <path d="m476.765 372.914 12.633 72.745h-25.265v-145.49h25.265z" fill="#9d66d5" data-original="#9D66D5" class="" style="fill:#0e596f" data-old_color="#9d66d5"/>
                </g>
                <g>
                    <path d="m489.395 300.165-57.591 72.747 57.591 72.747z" fill="#00afb9" data-original="#00afb9" class="" style="fill:#00afb9" data-old_color="#00afb9"/>
                </g>
                <g>
                    <path d="m464.136 332.072v81.68l25.259 31.907v-145.494z" fill="#00afb9" data-original="#00afb9" class="" style="fill:#00afb9" data-old_color="#00afb9"/>
                </g>
                <g>
                    <path d="m374.213 300.165-57.591 72.747 57.591 72.747 57.591-72.747z" fill="#00afb9" data-original="#00afb9" class="" style="fill:#00afb9" data-old_color="#00afb9"/>
                </g>
                <g>
                    <path d="m137.787 300.165 57.591 72.747-57.591 72.747-57.591-72.747z" fill="#00afb9" data-original="#00afb9" class="" style="fill:#00afb9" data-old_color="#00afb9"/>
                </g>
                <g>
                    <path d="m256 300.165-60.622 72.747 60.622 72.747 60.622-72.747z" fill="#00afb9" data-original="#00afb9" class="" style="fill:#00afb9" data-old_color="#00afb9"/>
                </g>
            </g>
            <g>
                <g>
                    <circle cx="334.783" cy="180.916" fill="#e7a561" r="24.249" data-original="#E7A561" class=""/>
                </g>
                <g>
                    <path d="m351.929 163.769c-2.228-2.228-4.787-3.911-7.513-5.091 3.835 8.861 2.151 19.538-5.091 26.78s-17.919 8.926-26.78 5.091c1.18 2.725 2.863 5.285 5.091 7.513 9.47 9.47 24.823 9.47 34.293 0s9.47-24.823 0-34.293z" fill="#e49542" data-original="#E49542" class=""/>
                </g>
            </g>
            <g>
                <g>
                    <circle cx="177.217" cy="180.916" fill="#e7a561" r="24.249" data-original="#E7A561" class=""/>
                </g>
                <g>
                    <path d="m194.364 163.769c-2.228-2.228-4.787-3.911-7.513-5.091 3.835 8.861 2.151 19.538-5.091 26.78s-17.919 8.926-26.78 5.091c1.18 2.725 2.863 5.285 5.091 7.513 9.47 9.47 24.823 9.47 34.293 0s9.47-24.823 0-34.293z" fill="#e49542" data-original="#E49542" class=""/>
                </g>
            </g>
        </g>
    </g>
</svg>
