<?xml version="1.0"?>
<svg opacity="0.8" xmlns="http://www.w3.org/2000/svg" id="Capa_1" enable-background="new 0 0 512 512" height="512px" viewBox="0 0 512 512" width="512px" class="">
    <g>
        <g>
            <path d="m443.317 512h-374.634c-11.495 0-20.813-9.318-20.813-20.813v-41.626c0-11.495 9.318-20.813 20.813-20.813h374.634c11.495 0 20.813 9.318 20.813 20.813v41.626c0 11.495-9.318 20.813-20.813 20.813z" fill="#f1d59d" data-original="#F1D59D"/>
            <path d="m443.317 428.748h-48.911c11.495 0 20.813 9.318 20.813 20.813v41.626c0 11.495-9.318 20.813-20.813 20.813h48.911c11.495 0 20.813-9.318 20.813-20.813v-41.626c0-11.495-9.318-20.813-20.813-20.813z" fill="#efcb84" data-original="#EFCB84" class=""/>
            <path d="m395.447 428.748h-278.894c-20.69 0-37.463-16.773-37.463-37.463 0-20.69 16.773-37.463 37.463-37.463h278.895c20.69 0 37.463 16.773 37.463 37.463 0 20.69-16.773 37.463-37.464 37.463z" fill="#fed9b7" data-original="#fed9b7" class="" style="fill:#fed9b7" data-old_color="#fed9b7"/>
            <path d="m374.634 353.821h-237.268c-20.69 0-37.463-16.773-37.463-37.463 0-20.69 16.773-37.463 37.463-37.463h237.268c20.69 0 37.463 16.773 37.463 37.463.001 20.69-16.772 37.463-37.463 37.463z" fill="#f07167" data-original="#f07167" class="" style="fill:#f07167" data-old_color="#f07167"/>
            <path d="m353.821 278.894h-195.642c-20.69 0-37.463-16.773-37.463-37.463 0-20.69 16.773-37.463 37.463-37.463h195.642c20.69 0 37.463 16.773 37.463 37.463.001 20.69-16.772 37.463-37.463 37.463z" fill="#00afb9" data-original="#00afb9" class="" style="fill:#00afb9" data-old_color="#00afb9"/>
            <path d="m333.008 203.967h-154.016c-20.69 0-37.463-16.773-37.463-37.463 0-20.69 16.773-37.463 37.463-37.463h154.016c20.69 0 37.463 16.773 37.463 37.463.001 20.69-16.772 37.463-37.463 37.463z" fill="#fdfcdc" data-original="#fdfcdc" class="" style="fill:#fdfcdc" data-old_color="#fdfcdc"/>
            <path d="m403.431 354.682c.559 2.574.861 5.243.861 7.984 0 20.69-16.773 37.463-37.463 37.463h-278.894c-2.741 0-5.411-.302-7.984-.861 3.66 16.853 18.653 29.479 36.602 29.479h278.894c20.691 0 37.463-16.773 37.463-37.463.001-17.949-12.625-32.942-29.479-36.602z" fill="#f6b579" data-original="#f6b579" class="active-path" style="fill:#f6b579" data-old_color="#f6b579"/>
            <path d="m382.618 279.755c.559 2.574.861 5.243.861 7.984 0 20.69-16.773 37.463-37.463 37.463h-237.268c-2.741 0-5.411-.302-7.984-.861 3.66 16.853 18.653 29.479 36.602 29.479h237.268c20.691 0 37.463-16.773 37.463-37.463.001-17.949-12.626-32.942-29.479-36.602z" fill="#c25148" data-original="#c25148" class="" style="fill:#c25148" data-old_color="#c25148"/>
            <path d="m361.805 204.829c.559 2.574.861 5.243.861 7.984 0 20.69-16.773 37.463-37.463 37.463h-195.642c-2.741 0-5.411-.302-7.984-.861 3.66 16.853 18.653 29.479 36.602 29.479h195.642c20.691 0 37.463-16.773 37.463-37.463.001-17.95-12.626-32.943-29.479-36.602z" fill="#0d7379" data-original="#0d7379" class="" style="fill:#0d7379" data-old_color="#0d7379"/>
            <path d="m340.992 129.902c.559 2.574.861 5.243.861 7.984 0 20.69-16.773 37.463-37.463 37.463h-154.016c-2.741 0-5.411-.302-7.984-.861 3.66 16.853 18.653 29.479 36.602 29.479h154.016c20.691 0 37.463-16.773 37.463-37.463.001-17.949-12.626-32.943-29.479-36.602z" fill="#c8c7a6" data-original="#c8c7a6" class="" style="fill:#c8c7a6" data-old_color="#c8c7a6"/>
            <path d="m224.78 129.04v-97.82c0-17.242 13.978-31.22 31.22-31.22 17.242 0 31.219 13.977 31.219 31.219v97.821z" fill="#f1d59d" data-original="#F1D59D"/>
            <path d="m256 0c-3.65 0-7.151.632-10.406 1.784 12.124 4.287 20.813 15.844 20.813 29.436v55.154c0 11.495-9.318 20.813-20.813 20.813h-20.814v21.854h62.439v-97.821c0-17.242-13.977-31.22-31.219-31.22z" fill="#efcb84" data-original="#EFCB84" class=""/>
        </g>
    </g>
</svg>
