<?xml version="1.0"?>
<svg opacity="0.8" xmlns="http://www.w3.org/2000/svg" id="Capa_1" enable-background="new 0 0 512 512" height="512px" viewBox="0 0 512 512" width="512px" class="">
    <g>
        <g>
            <g>
                <path d="m7.612 512c-1.947 0-3.896-.743-5.383-2.229-2.972-2.973-2.972-7.792 0-10.765 3.812-3.811 4.73-6.171 6.002-9.44 1.494-3.835 3.351-8.609 9.425-14.683 6.972-6.973 13.999-7.422 19.13-7.75 4.143-.265 6.425-.41 9.337-3.322 2.911-2.912 3.057-5.193 3.322-9.337.327-5.131.776-12.158 7.749-19.131 1.246-1.245 2.497-2.294 3.827-3.21 3.462-2.387 8.202-1.51 10.586 1.953s1.508 8.202-1.953 10.586c-.558.384-1.112.853-1.694 1.436-2.912 2.912-3.058 5.193-3.323 9.337-.327 5.131-.776 12.158-7.749 19.131-6.973 6.972-14 7.421-19.13 7.749-4.143.265-6.425.41-9.337 3.323-3.812 3.811-4.73 6.171-6.002 9.439-1.494 3.836-3.351 8.61-9.424 14.684-1.487 1.486-3.436 2.229-5.383 2.229z" fill="#dd5790" data-original="#DD5790" class="" style="fill:#f6b579" data-old_color="#dd5790"/>
            </g>
            <g>
                <path d="m95.799 429.209c-.622 0-1.254-.076-1.883-.237-4.074-1.038-6.536-5.18-5.5-9.254.353-1.387.453-2.956.568-4.774.326-5.133.772-12.163 7.749-19.141 6.974-6.972 14-7.421 19.131-7.749 4.143-.265 6.425-.41 9.337-3.322 2.91-2.907 3.055-5.187 3.316-9.327.326-5.133.771-12.163 7.748-19.133 6.1-6.099 10.823-7.881 14.617-9.312 3.163-1.193 8.139-4.747 11.921-8.53 2.973-2.971 7.792-2.971 10.765 0 2.972 2.973 2.972 7.792 0 10.765-6.103 6.102-13.519 10.576-17.314 12.008-3.162 1.193-5.446 2.055-9.228 5.836-2.911 2.908-3.055 5.188-3.317 9.328-.326 5.133-.771 12.162-7.748 19.132-6.971 6.97-13.997 7.419-19.128 7.747-4.143.265-6.425.41-9.337 3.322-2.913 2.913-3.057 5.196-3.321 9.34-.143 2.252-.304 4.804-1.007 7.564-.875 3.445-3.972 5.737-7.369 5.737z" fill="#dd5790" data-original="#DD5790" class="" style="fill:#f6b579" data-old_color="#dd5790"/>
            </g>
            <path d="m177.361 334.639 318.236-86.264-21.023-210.949-210.949-21.023z" fill="#ffe07d" data-original="#FFE07D" class="" style="fill:#fdfcdc" data-old_color="#ffe07d"/>
            <path d="m378.982 223.518c-64.389 33.708-130.674 47.184-182.623 41.035-6.525 24.072-18.998 70.087-18.998 70.087l318.236-86.264s-5.297-53.153-10.593-106.3c-26.57 30.284-62.794 58.812-106.022 81.442z" fill="#ffd064" data-original="#FFD064" class="" style="fill:#c8c7a6" data-old_color="#ffd064"/>
            <g>
                <path d="m507.196 236.776-104.388-104.387 83.365-83.365c6.406-6.406 6.406-16.791 0-23.197s-16.791-6.406-23.197 0l-83.365 83.365-104.387-104.387c-6.406-6.406-16.791-6.406-23.197 0s-6.406 16.791 0 23.197l104.387 104.387-190.652 190.652c-6.406 6.406-6.406 16.791 0 23.197s16.791 6.406 23.197 0l190.652-190.652 104.387 104.387c6.406 6.406 16.791 6.406 23.197 0s6.407-16.791.001-23.197z" fill="#ac80dd" data-original="#AC80DD" class="" style="fill:#00afb9" data-old_color="#ac80dd"/>
                <g fill="#9d66d5">
                    <path d="m222.805 265.998-57.043 57.043c-6.406 6.406-6.406 16.791 0 23.197s16.791 6.406 23.197 0l85.512-85.512c-17.945 3.437-35.303 5.196-51.666 5.272z" data-original="#9D66D5" class="" style="fill:#0e596f" data-old_color="#9D66D5"/>
                    <path d="m448.143 177.724c-8.301 6.89-17.115 13.572-26.403 19.991l62.258 62.258c6.406 6.406 16.791 6.406 23.197 0s6.406-16.791 0-23.197z" data-original="#9D66D5" class="" style="fill:#0e596f" data-old_color="#9D66D5"/>
                </g>
            </g>
            <g>
                <path d="m68.749 443.251-34.828-15.98c-12.984-5.957-16.049-23.033-5.948-33.134l16.309-16.309c10.101-10.101 27.177-7.036 33.134 5.948l15.98 34.828z" fill="#f6b579" data-original="#f6b579" class="active-path" style="fill:#f6b579" data-old_color="#f6b579"/>
                <path d="m68.749 443.251 15.98 34.828c5.957 12.984 23.033 16.049 33.134 5.948l16.309-16.309c10.101-10.101 7.036-27.177-5.948-33.134l-34.828-15.98z" fill="#f6b579" data-original="#f6b579" class="active-path" style="fill:#f6b579" data-old_color="#f6b579"/>
                <circle cx="81.073" cy="430.927" fill="#ffe07d" r="17.428" data-original="#FFE07D" class="" style="fill:#fdfcdc" data-old_color="#ffe07d"/>
            </g>
        </g>
    </g>
</svg>
