<?xml version="1.0"?>
<svg opacity="0.8" xmlns="http://www.w3.org/2000/svg" id="Capa_1" enable-background="new 0 0 512 512" height="512px" viewBox="0 0 512 512" width="512px" class=""><g><g><g><path d="m272.651 167.986h-33.302c-4.268 0-7.726-3.459-7.726-7.726s3.459-7.726 7.726-7.726h33.302c4.268 0 7.726 3.459 7.726 7.726s-3.458 7.726-7.726 7.726z" fill="#30579d" data-original="#30579D" class="active-path" style="fill:#3F3D56" data-old_color="#30579d"/></g><g><path d="m172.747 72.246h-66.602c-4.268 0-7.726-3.459-7.726-7.726s3.459-7.726 7.726-7.726h66.602c4.268 0 7.726 3.459 7.726 7.726s-3.458 7.726-7.726 7.726z" fill="#30579d" data-original="#30579D" class="active-path" style="fill:#3F3D56" data-old_color="#30579d"/></g><g><path d="m405.854 72.246h-66.602c-4.268 0-7.726-3.459-7.726-7.726s3.459-7.726 7.726-7.726h66.602c4.268 0 7.726 3.459 7.726 7.726s-3.458 7.726-7.726 7.726z" fill="#30579d" data-original="#30579D" class="active-path" style="fill:#3F3D56" data-old_color="#30579d"/></g><g><path d="m206.048 167.986h-99.902c-4.268 0-7.726-3.459-7.726-7.726s3.459-7.726 7.726-7.726h99.902c4.268 0 7.726 3.459 7.726 7.726s-3.458 7.726-7.726 7.726z" fill="#30579d" data-original="#30579D" class="active-path" style="fill:#3F3D56" data-old_color="#30579d"/></g><g><path d="m338.211 263.726h-132.163c-4.268 0-7.726-3.459-7.726-7.726s3.459-7.726 7.726-7.726h132.163c4.268 0 7.726 3.459 7.726 7.726.001 4.267-3.458 7.726-7.726 7.726z" fill="#30579d" data-original="#30579D" class="active-path" style="fill:#3F3D56" data-old_color="#30579d"/></g><g><path d="m172.747 359.466h-66.602c-4.268 0-7.726-3.459-7.726-7.726s3.459-7.726 7.726-7.726h66.602c4.268 0 7.726 3.459 7.726 7.726.001 4.267-3.458 7.726-7.726 7.726z" fill="#30579d" data-original="#30579D" class="active-path" style="fill:#3F3D56" data-old_color="#30579d"/></g><g><path d="m405.854 359.466h-66.602c-4.268 0-7.726-3.459-7.726-7.726s3.459-7.726 7.726-7.726h66.602c4.268 0 7.726 3.459 7.726 7.726s-3.458 7.726-7.726 7.726z" fill="#30579d" data-original="#30579D" class="active-path" style="fill:#3F3D56" data-old_color="#30579d"/></g><g><path d="m239.349 455.206h-133.203c-4.268 0-7.726-3.459-7.726-7.726s3.459-7.726 7.726-7.726h133.203c4.268 0 7.726 3.459 7.726 7.726s-3.458 7.726-7.726 7.726z" fill="#30579d" data-original="#30579D" class="active-path" style="fill:#3F3D56" data-old_color="#30579d"/></g><g><path d="m405.854 501.594v-491.187c0-5.748 4.659-10.407 10.406-10.407h20.813c5.747 0 10.406 4.659 10.406 10.407v491.187c0 5.747-4.659 10.406-10.406 10.406h-20.813c-5.747 0-10.406-4.659-10.406-10.406z" fill="#f1d59d" data-original="#F1D59D" class=""/></g><g><path d="m437.073 0h-16.65c5.747 0 10.406 4.659 10.406 10.407v491.187c0 5.747-4.659 10.406-10.406 10.406h16.65c5.747 0 10.406-4.659 10.406-10.406v-491.187c.001-5.748-4.658-10.407-10.406-10.407z" fill="#efcb84" data-original="#EFCB84" class=""/></g><g><path d="m64.52 501.594v-491.187c0-5.748 4.659-10.407 10.407-10.407h20.813c5.747 0 10.407 4.659 10.407 10.407v491.187c0 5.747-4.659 10.406-10.407 10.406h-20.813c-5.748 0-10.407-4.659-10.407-10.406z" fill="#f1d59d" data-original="#F1D59D" class=""/></g><g><path d="m95.74 0h-16.65c5.747 0 10.407 4.659 10.407 10.407v491.187c0 5.747-4.659 10.406-10.407 10.406h16.65c5.747 0 10.407-4.659 10.407-10.406v-491.187c-.001-5.748-4.66-10.407-10.407-10.407z" fill="#efcb84" data-original="#EFCB84" class=""/></g><g><g><path d="m322.602 95.74c-9.196 0-16.65-7.455-16.65-16.65v-29.139c0-9.196 7.455-16.65 16.65-16.65 9.196 0 16.65 7.455 16.65 16.65v29.138c0 9.196-7.455 16.651-16.65 16.651z" fill="#df75a5" data-original="#DF75A5" class="" style="fill:#F07167" data-old_color="#df75a5"/></g><g><path d="m322.602 33.301c-2.21 0-4.315.44-6.244 1.222 6.1 2.471 10.406 8.443 10.406 15.429v29.138c0 6.986-4.307 12.958-10.406 15.429 1.929.782 4.034 1.222 6.244 1.222 9.196 0 16.65-7.455 16.65-16.65v-29.14c0-9.196-7.455-16.65-16.65-16.65z" fill="#dd5790" data-original="#DD5790" class="" style="fill:#C25148" data-old_color="#dd5790"/></g></g><g><g><path d="m289.301 95.74c-9.196 0-16.65-7.455-16.65-16.65v-29.139c0-9.196 7.455-16.65 16.65-16.65 9.196 0 16.65 7.455 16.65 16.65v29.138c0 9.196-7.454 16.651-16.65 16.651z" fill="#df75a5" data-original="#DF75A5" class="" style="fill:#F07167" data-old_color="#df75a5"/></g><g><path d="m289.301 33.301c-2.21 0-4.315.44-6.244 1.222 6.1 2.471 10.406 8.443 10.406 15.429v29.138c0 6.986-4.307 12.958-10.406 15.429 1.929.782 4.034 1.222 6.244 1.222 9.196 0 16.65-7.455 16.65-16.65v-29.14c0-9.196-7.455-16.65-16.65-16.65z" fill="#dd5790" data-original="#DD5790" class="" style="fill:#C25148" data-old_color="#dd5790"/></g></g><g><g><path d="m256 95.74c-9.196 0-16.65-7.455-16.65-16.65v-29.139c0-9.196 7.455-16.65 16.65-16.65 9.196 0 16.65 7.455 16.65 16.65v29.138c0 9.196-7.454 16.651-16.65 16.651z" fill="#df75a5" data-original="#DF75A5" class="" style="fill:#F07167" data-old_color="#df75a5"/></g><g><path d="m256 33.301c-2.21 0-4.315.44-6.244 1.222 6.1 2.471 10.406 8.443 10.406 15.429v29.138c0 6.986-4.307 12.958-10.406 15.429 1.929.782 4.034 1.222 6.244 1.222 9.196 0 16.65-7.455 16.65-16.65v-29.14c0-9.196-7.454-16.65-16.65-16.65z" fill="#dd5790" data-original="#DD5790" class="" style="fill:#C25148" data-old_color="#dd5790"/></g></g><g><g><path d="m222.699 95.74c-9.196 0-16.65-7.455-16.65-16.65v-29.139c0-9.196 7.455-16.65 16.65-16.65 9.196 0 16.65 7.455 16.65 16.65v29.138c.001 9.196-7.454 16.651-16.65 16.651z" fill="#df75a5" data-original="#DF75A5" class="" style="fill:#F07167" data-old_color="#df75a5"/></g><g><path d="m222.699 33.301c-2.21 0-4.315.44-6.244 1.222 6.1 2.471 10.406 8.443 10.406 15.429v29.138c0 6.986-4.307 12.958-10.406 15.429 1.929.782 4.034 1.222 6.244 1.222 9.196 0 16.65-7.455 16.65-16.65v-29.14c.001-9.196-7.454-16.65-16.65-16.65z" fill="#dd5790" data-original="#DD5790" class="" style="fill:#C25148" data-old_color="#dd5790"/></g></g><g><g><path d="m189.398 95.74c-9.196 0-16.65-7.455-16.65-16.65v-29.139c0-9.196 7.455-16.65 16.65-16.65 9.196 0 16.65 7.455 16.65 16.65v29.138c.001 9.196-7.454 16.651-16.65 16.651z" fill="#df75a5" data-original="#DF75A5" class="" style="fill:#F07167" data-old_color="#df75a5"/></g><g><path d="m189.398 33.301c-2.21 0-4.315.44-6.244 1.222 6.1 2.471 10.407 8.443 10.407 15.429v29.138c0 6.986-4.307 12.958-10.407 15.429 1.929.782 4.034 1.222 6.244 1.222 9.196 0 16.65-7.455 16.65-16.65v-29.14c.001-9.196-7.454-16.65-16.65-16.65z" fill="#dd5790" data-original="#DD5790" class="" style="fill:#C25148" data-old_color="#dd5790"/></g></g><g><g><path d="m389.203 191.48c-9.196 0-16.65-7.455-16.65-16.65v-29.138c0-9.196 7.455-16.65 16.65-16.65 9.196 0 16.65 7.455 16.65 16.65v29.138c.001 9.195-7.454 16.65-16.65 16.65z" fill="#ffe07d" data-original="#FFE07D" class="" style="fill:#FDFCDC" data-old_color="#ffe07d"/></g><g><path d="m389.203 129.041c-2.21 0-4.315.44-6.244 1.222 6.1 2.471 10.406 8.443 10.406 15.429v29.138c0 6.986-4.307 12.958-10.406 15.429 1.929.782 4.034 1.222 6.244 1.222 9.196 0 16.65-7.455 16.65-16.65v-29.138c.001-9.198-7.454-16.652-16.65-16.652z" fill="#ffd064" data-original="#FFD064" class="" style="fill:#C8C7A6" data-old_color="#ffd064"/></g></g><g><g><path d="m355.902 191.48c-9.196 0-16.65-7.455-16.65-16.65v-29.138c0-9.196 7.455-16.65 16.65-16.65 9.196 0 16.65 7.455 16.65 16.65v29.138c.001 9.195-7.454 16.65-16.65 16.65z" fill="#ffe07d" data-original="#FFE07D" class="" style="fill:#FDFCDC" data-old_color="#ffe07d"/></g><g><path d="m355.902 129.041c-2.21 0-4.315.44-6.244 1.222 6.1 2.471 10.406 8.443 10.406 15.429v29.138c0 6.986-4.307 12.958-10.406 15.429 1.929.782 4.034 1.222 6.244 1.222 9.196 0 16.65-7.455 16.65-16.65v-29.138c.001-9.198-7.454-16.652-16.65-16.652z" fill="#ffd064" data-original="#FFD064" class="" style="fill:#C8C7A6" data-old_color="#ffd064"/></g></g><g><g><path d="m322.602 191.48c-9.196 0-16.65-7.455-16.65-16.65v-29.138c0-9.196 7.455-16.65 16.65-16.65 9.196 0 16.65 7.455 16.65 16.65v29.138c0 9.195-7.455 16.65-16.65 16.65z" fill="#ffe07d" data-original="#FFE07D" class="" style="fill:#FDFCDC" data-old_color="#ffe07d"/></g><g><path d="m322.602 129.041c-2.21 0-4.315.44-6.244 1.222 6.1 2.471 10.406 8.443 10.406 15.429v29.138c0 6.986-4.307 12.958-10.406 15.429 1.929.782 4.034 1.222 6.244 1.222 9.196 0 16.65-7.455 16.65-16.65v-29.138c0-9.198-7.455-16.652-16.65-16.652z" fill="#ffd064" data-original="#FFD064" class="" style="fill:#C8C7A6" data-old_color="#ffd064"/></g></g><g><g><path d="m289.301 191.48c-9.196 0-16.65-7.455-16.65-16.65v-29.138c0-9.196 7.455-16.65 16.65-16.65 9.196 0 16.65 7.455 16.65 16.65v29.138c0 9.195-7.454 16.65-16.65 16.65z" fill="#ffe07d" data-original="#FFE07D" class="" style="fill:#FDFCDC" data-old_color="#ffe07d"/></g><g><path d="m289.301 129.041c-2.21 0-4.315.44-6.244 1.222 6.1 2.471 10.406 8.443 10.406 15.429v29.138c0 6.986-4.307 12.958-10.406 15.429 1.929.782 4.034 1.222 6.244 1.222 9.196 0 16.65-7.455 16.65-16.65v-29.138c0-9.198-7.455-16.652-16.65-16.652z" fill="#ffd064" data-original="#FFD064" class="" style="fill:#C8C7A6" data-old_color="#ffd064"/></g></g><g><g><path d="m222.699 191.48c-9.196 0-16.65-7.455-16.65-16.65v-29.138c0-9.196 7.455-16.65 16.65-16.65 9.196 0 16.65 7.455 16.65 16.65v29.138c.001 9.195-7.454 16.65-16.65 16.65z" fill="#ffe07d" data-original="#FFE07D" class="" style="fill:#FDFCDC" data-old_color="#ffe07d"/></g><g><path d="m222.699 129.041c-2.21 0-4.315.44-6.244 1.222 6.1 2.471 10.406 8.443 10.406 15.429v29.138c0 6.986-4.307 12.958-10.406 15.429 1.929.782 4.034 1.222 6.244 1.222 9.196 0 16.65-7.455 16.65-16.65v-29.138c.001-9.198-7.454-16.652-16.65-16.652z" fill="#ffd064" data-original="#FFD064" class="" style="fill:#C8C7A6" data-old_color="#ffd064"/></g></g><g><g><path d="m389.203 287.22c-9.196 0-16.65-7.455-16.65-16.65v-29.138c0-9.196 7.455-16.65 16.65-16.65 9.196 0 16.65 7.455 16.65 16.65v29.138c.001 9.195-7.454 16.65-16.65 16.65z" fill="#ac80dd" data-original="#AC80DD" class="" style="fill:#0081A7" data-old_color="#ac80dd"/></g><g><path d="m389.203 224.78c-2.21 0-4.315.44-6.244 1.222 6.1 2.471 10.406 8.443 10.406 15.429v29.138c0 6.986-4.307 12.958-10.406 15.429 1.929.782 4.034 1.222 6.244 1.222 9.196 0 16.65-7.455 16.65-16.65v-29.138c.001-9.197-7.454-16.652-16.65-16.652z" fill="#9d66d5" data-original="#9D66D5" class="" style="fill:#0E596F" data-old_color="#9d66d5"/></g></g><g><g><path d="m355.902 287.22c-9.196 0-16.65-7.455-16.65-16.65v-29.138c0-9.196 7.455-16.65 16.65-16.65 9.196 0 16.65 7.455 16.65 16.65v29.138c.001 9.195-7.454 16.65-16.65 16.65z" fill="#ac80dd" data-original="#AC80DD" class="" style="fill:#0081A7" data-old_color="#ac80dd"/></g><g><path d="m355.902 224.78c-2.21 0-4.315.44-6.244 1.222 6.1 2.471 10.406 8.443 10.406 15.429v29.138c0 6.986-4.307 12.958-10.406 15.429 1.929.782 4.034 1.222 6.244 1.222 9.196 0 16.65-7.455 16.65-16.65v-29.138c.001-9.197-7.454-16.652-16.65-16.652z" fill="#9d66d5" data-original="#9D66D5" class="" style="fill:#0E596F" data-old_color="#9d66d5"/></g></g><g><g><path d="m189.398 287.22c-9.196 0-16.65-7.455-16.65-16.65v-29.138c0-9.196 7.455-16.65 16.65-16.65 9.196 0 16.65 7.455 16.65 16.65v29.138c.001 9.195-7.454 16.65-16.65 16.65z" fill="#ac80dd" data-original="#AC80DD" class="" style="fill:#0081A7" data-old_color="#ac80dd"/></g><g><path d="m189.398 224.78c-2.21 0-4.315.44-6.244 1.222 6.1 2.471 10.407 8.443 10.407 15.429v29.138c0 6.986-4.307 12.958-10.407 15.429 1.929.782 4.034 1.222 6.244 1.222 9.196 0 16.65-7.455 16.65-16.65v-29.138c.001-9.197-7.454-16.652-16.65-16.652z" fill="#9d66d5" data-original="#9D66D5" class="" style="fill:#0E596F" data-old_color="#9d66d5"/></g></g><g><g><path d="m156.098 287.22c-9.196 0-16.65-7.455-16.65-16.65v-29.138c0-9.196 7.455-16.65 16.65-16.65 9.196 0 16.65 7.455 16.65 16.65v29.138c0 9.195-7.455 16.65-16.65 16.65z" fill="#ac80dd" data-original="#AC80DD" class="" style="fill:#0081A7" data-old_color="#ac80dd"/></g><g><path d="m156.098 224.78c-2.21 0-4.315.44-6.244 1.222 6.1 2.471 10.407 8.443 10.407 15.429v29.138c0 6.986-4.307 12.958-10.407 15.429 1.929.782 4.034 1.222 6.244 1.222 9.196 0 16.65-7.455 16.65-16.65v-29.138c0-9.197-7.455-16.652-16.65-16.652z" fill="#9d66d5" data-original="#9D66D5" class="" style="fill:#0E596F" data-old_color="#9d66d5"/></g></g><g><g><path d="m122.797 287.22c-9.196 0-16.65-7.455-16.65-16.65v-29.138c0-9.196 7.455-16.65 16.65-16.65 9.196 0 16.65 7.455 16.65 16.65v29.138c0 9.195-7.454 16.65-16.65 16.65z" fill="#ac80dd" data-original="#AC80DD" class="" style="fill:#0081A7" data-old_color="#ac80dd"/></g><g><path d="m122.797 224.78c-2.21 0-4.315.44-6.244 1.222 6.1 2.471 10.407 8.443 10.407 15.429v29.138c0 6.986-4.307 12.958-10.407 15.429 1.929.782 4.034 1.222 6.244 1.222 9.196 0 16.65-7.455 16.65-16.65v-29.138c0-9.197-7.455-16.652-16.65-16.652z" fill="#9d66d5" data-original="#9D66D5" class="" style="fill:#0E596F" data-old_color="#9d66d5"/></g></g><g><g><path d="m322.602 382.959c-9.196 0-16.65-7.455-16.65-16.65v-29.138c0-9.196 7.455-16.65 16.65-16.65 9.196 0 16.65 7.455 16.65 16.65v29.138c0 9.196-7.455 16.65-16.65 16.65z" fill="#a2f4c1" data-original="#A2F4C1" class="" style="fill:#00AFB9" data-old_color="#a2f4c1"/></g><g><path d="m322.602 320.52c-2.21 0-4.315.44-6.244 1.222 6.1 2.471 10.406 8.443 10.406 15.429v29.138c0 6.986-4.307 12.958-10.406 15.429 1.929.782 4.034 1.222 6.244 1.222 9.196 0 16.65-7.455 16.65-16.65v-29.138c0-9.197-7.455-16.652-16.65-16.652z" fill="#86f1a7" data-original="#86F1A7" class="" style="fill:#0D7379" data-old_color="#86f1a7"/></g></g><g><g><path d="m289.301 382.959c-9.196 0-16.65-7.455-16.65-16.65v-29.138c0-9.196 7.455-16.65 16.65-16.65 9.196 0 16.65 7.455 16.65 16.65v29.138c0 9.196-7.454 16.65-16.65 16.65z" fill="#a2f4c1" data-original="#A2F4C1" class="" style="fill:#00AFB9" data-old_color="#a2f4c1"/></g><g><path d="m289.301 320.52c-2.21 0-4.315.44-6.244 1.222 6.1 2.471 10.406 8.443 10.406 15.429v29.138c0 6.986-4.307 12.958-10.406 15.429 1.929.782 4.034 1.222 6.244 1.222 9.196 0 16.65-7.455 16.65-16.65v-29.138c0-9.197-7.455-16.652-16.65-16.652z" fill="#86f1a7" data-original="#86F1A7" class="" style="fill:#0D7379" data-old_color="#86f1a7"/></g></g><g><g><path d="m256 382.959c-9.196 0-16.65-7.455-16.65-16.65v-29.138c0-9.196 7.455-16.65 16.65-16.65 9.196 0 16.65 7.455 16.65 16.65v29.138c0 9.196-7.454 16.65-16.65 16.65z" fill="#a2f4c1" data-original="#A2F4C1" class="" style="fill:#00AFB9" data-old_color="#a2f4c1"/></g><g><path d="m256 320.52c-2.21 0-4.315.44-6.244 1.222 6.1 2.471 10.406 8.443 10.406 15.429v29.138c0 6.986-4.307 12.958-10.406 15.429 1.929.782 4.034 1.222 6.244 1.222 9.196 0 16.65-7.455 16.65-16.65v-29.138c0-9.197-7.454-16.652-16.65-16.652z" fill="#86f1a7" data-original="#86F1A7" class="" style="fill:#0D7379" data-old_color="#86f1a7"/></g></g><g><g><path d="m222.699 382.959c-9.196 0-16.65-7.455-16.65-16.65v-29.138c0-9.196 7.455-16.65 16.65-16.65 9.196 0 16.65 7.455 16.65 16.65v29.138c.001 9.196-7.454 16.65-16.65 16.65z" fill="#a2f4c1" data-original="#A2F4C1" class="" style="fill:#00AFB9" data-old_color="#a2f4c1"/></g><g><path d="m222.699 320.52c-2.21 0-4.315.44-6.244 1.222 6.1 2.471 10.406 8.443 10.406 15.429v29.138c0 6.986-4.307 12.958-10.406 15.429 1.929.782 4.034 1.222 6.244 1.222 9.196 0 16.65-7.455 16.65-16.65v-29.138c.001-9.197-7.454-16.652-16.65-16.652z" fill="#86f1a7" data-original="#86F1A7" class="" style="fill:#0D7379" data-old_color="#86f1a7"/></g></g><g><g><path d="m189.398 382.959c-9.196 0-16.65-7.455-16.65-16.65v-29.138c0-9.196 7.455-16.65 16.65-16.65 9.196 0 16.65 7.455 16.65 16.65v29.138c.001 9.196-7.454 16.65-16.65 16.65z" fill="#a2f4c1" data-original="#A2F4C1" class="" style="fill:#00AFB9" data-old_color="#a2f4c1"/></g><g><path d="m189.398 320.52c-2.21 0-4.315.44-6.244 1.222 6.1 2.471 10.407 8.443 10.407 15.429v29.138c0 6.986-4.307 12.958-10.407 15.429 1.929.782 4.034 1.222 6.244 1.222 9.196 0 16.65-7.455 16.65-16.65v-29.138c.001-9.197-7.454-16.652-16.65-16.652z" fill="#86f1a7" data-original="#86F1A7" class="" style="fill:#0D7379" data-old_color="#86f1a7"/></g></g><g><g><path d="m389.203 478.699c-9.196 0-16.65-7.455-16.65-16.65v-29.138c0-9.196 7.455-16.65 16.65-16.65 9.196 0 16.65 7.455 16.65 16.65v29.138c.001 9.196-7.454 16.65-16.65 16.65z" fill="#e7a561" data-original="#E7A561" class="" style="fill:#FED9B7" data-old_color="#e7a561"/></g><g><path d="m389.203 416.26c-2.21 0-4.315.44-6.244 1.222 6.1 2.471 10.406 8.443 10.406 15.429v29.138c0 6.986-4.307 12.958-10.406 15.429 1.929.782 4.034 1.222 6.244 1.222 9.196 0 16.65-7.455 16.65-16.65v-29.138c.001-9.197-7.454-16.652-16.65-16.652z" fill="#e49542" data-original="#E49542" class="" style="fill:#F6B579" data-old_color="#e49542"/></g></g><g><g><path d="m355.902 478.699c-9.196 0-16.65-7.455-16.65-16.65v-29.138c0-9.196 7.455-16.65 16.65-16.65 9.196 0 16.65 7.455 16.65 16.65v29.138c.001 9.196-7.454 16.65-16.65 16.65z" fill="#e7a561" data-original="#E7A561" class="" style="fill:#FED9B7" data-old_color="#e7a561"/></g><g><path d="m355.902 416.26c-2.21 0-4.315.44-6.244 1.222 6.1 2.471 10.406 8.443 10.406 15.429v29.138c0 6.986-4.307 12.958-10.406 15.429 1.929.782 4.034 1.222 6.244 1.222 9.196 0 16.65-7.455 16.65-16.65v-29.138c.001-9.197-7.454-16.652-16.65-16.652z" fill="#e49542" data-original="#E49542" class="" style="fill:#F6B579" data-old_color="#e49542"/></g></g><g><g><path d="m322.602 478.699c-9.196 0-16.65-7.455-16.65-16.65v-29.138c0-9.196 7.455-16.65 16.65-16.65 9.196 0 16.65 7.455 16.65 16.65v29.138c0 9.196-7.455 16.65-16.65 16.65z" fill="#e7a561" data-original="#E7A561" class="" style="fill:#FED9B7" data-old_color="#e7a561"/></g><g><path d="m322.602 416.26c-2.21 0-4.315.44-6.244 1.222 6.1 2.471 10.406 8.443 10.406 15.429v29.138c0 6.986-4.307 12.958-10.406 15.429 1.929.782 4.034 1.222 6.244 1.222 9.196 0 16.65-7.455 16.65-16.65v-29.138c0-9.197-7.455-16.652-16.65-16.652z" fill="#e49542" data-original="#E49542" class="" style="fill:#F6B579" data-old_color="#e49542"/></g></g><g><g><path d="m289.301 478.699c-9.196 0-16.65-7.455-16.65-16.65v-29.138c0-9.196 7.455-16.65 16.65-16.65 9.196 0 16.65 7.455 16.65 16.65v29.138c0 9.196-7.454 16.65-16.65 16.65z" fill="#e7a561" data-original="#E7A561" class="" style="fill:#FED9B7" data-old_color="#e7a561"/></g><g><path d="m289.301 416.26c-2.21 0-4.315.44-6.244 1.222 6.1 2.471 10.406 8.443 10.406 15.429v29.138c0 6.986-4.307 12.958-10.406 15.429 1.929.782 4.034 1.222 6.244 1.222 9.196 0 16.65-7.455 16.65-16.65v-29.138c0-9.197-7.455-16.652-16.65-16.652z" fill="#e49542" data-original="#E49542" class="" style="fill:#F6B579" data-old_color="#e49542"/></g></g><g><g><path d="m256 478.699c-9.196 0-16.65-7.455-16.65-16.65v-29.138c0-9.196 7.455-16.65 16.65-16.65 9.196 0 16.65 7.455 16.65 16.65v29.138c0 9.196-7.454 16.65-16.65 16.65z" fill="#e7a561" data-original="#E7A561" class="" style="fill:#FED9B7" data-old_color="#e7a561"/></g><g><path d="m256 416.26c-2.21 0-4.315.44-6.244 1.222 6.1 2.471 10.406 8.443 10.406 15.429v29.138c0 6.986-4.307 12.958-10.406 15.429 1.929.782 4.034 1.222 6.244 1.222 9.196 0 16.65-7.455 16.65-16.65v-29.138c0-9.197-7.454-16.652-16.65-16.652z" fill="#e49542" data-original="#E49542" class="" style="fill:#F6B579" data-old_color="#e49542"/></g></g></g></g> </svg>
